<!-- sample rectangle -->
<svg xmlns="http://www.w3.org/2000/svg" width="48" height="64" stroke="#000" stroke-linecap="round" stroke-linejoin="round" fill="#fff" fill-rule="evenodd" id="javaImage">
                            <path d="M15.2385 49.4887c-9.817 2.7693 6.0031 8.4333 18.5031 3.0893a20.037 20.037 0 0 1-3.526-1.7101c-5.556 1.068-8.23 
                            1.174-13.2501.534-4.17-.428-1.71-1.9239-1.727-1.9132zm-1.583-6.9548c-10.792 3.6341 6.0921 7.6941 21.16 3.206a6.521 6.521 
                            0 0 1-2.564-1.602c-7.3759 1.494-11.65 1.388-17.1.854-4.0667-.4196-1.6219-2.3623-1.496-2.458zm29.5116 12.1933c6.5209 2.997-14.5031 
                            8.9537-39.9995 4.7928-9.298-1.4941 4.592-6.73 7.052-5.0201 0 0-.75 0-2.14.32-1.37.214-5.644 1.604-3.4 2.564 6.4119 2.78 29.28 2.1401 
                            36.44 0 3.6194-1.1067 2.2242-2.4969 2.0475-2.6567zM16.3988 35.267c-.2887-.017-4.764-.2331-10.1373 2.3509-6.5199 3.2061 16.244 4.5961 
                            28.1041 1.496 1.176-.7479 2.886-1.496 2.886-1.496s-4.812.8521-9.6201 1.28c-5.8779.426-12.182.534-15.388.1061-7.3356-.9415 3.7256-3.6335 
                            4.1553-3.737zm20.8487 11.645c-.1079.2139-.2139.32-.2139.32 16.0319-4.1661 10.0479-14.852 2.4599-12.18-.7479.214-1.0679.8539-1.0679.8539s.4299-.2139 
                            1.39-.4279c3.848-.746 9.4039 5.2339-2.5681 11.434zM17.5916 63.7939c-7.588-.43-9.084-1.7099-9.084-1.7099 7.16 1.1719 19.3419 1.388 29.1739-.4281 
                            8.6561-1.6 9.51-3.7399 9.51-3.7399-.426 5.4519-18.06 6.628-29.5999 5.8779zm25.558-9.082s.0063.0052.0173.0152c-.011-.01-.0173-.0152-.0333-.0152zM16.3988 
                            35.267l.0128-.0031zM30.0035 0s6.6261 6.732-6.3039 16.884c-10.3661 8.228-2.35 12.93 0 18.274-6.0921-5.45-10.4721-10.26-7.4801-14.746 4.3801-6.628 
                            16.456-9.814 13.784-20.412zm-3.3999 30.67c3.1 3.526-.8541 6.732-.8541 6.732s7.9081-4.06 4.274-9.084c-3.312-4.808-5.88-7.16 8.014-15.174 0 0-21.906 
                            5.45-11.4339 17.526z" fill="#000" stroke="none"/></svg>