<?xml version="1.0" standalone="no"?>
<!DOCTYPE svg PUBLIC "-//W3C//DTD SVG 20010904//EN"
 "http://www.w3.org/TR/2001/REC-SVG-20010904/DTD/svg10.dtd">
<svg version="1.0" xmlns="http://www.w3.org/2000/svg"
 width="500.000000pt" height="500.000000pt" viewBox="0 0 500.000000 500.000000"
 preserveAspectRatio="xMidYMid meet">
<metadata>
Created by potrace 1.14, written by Peter Selinger 2001-2017
</metadata>
<g transform="translate(0.000000,500.000000) scale(0.100000,-0.100000)"
fill="#000000" stroke="none">
<path d="M150 3598 c-41 -28 -54 -71 -47 -148 5 -45 12 -60 37 -82 29 -27 35
-28 139 -28 l108 0 92 -262 c51 -145 159 -452 241 -683 82 -231 208 -586 279
-789 72 -203 141 -384 153 -402 40 -59 90 -79 193 -79 64 1 99 5 120 17 77 42
67 17 466 1135 l377 1058 115 5 c129 6 149 15 167 79 22 78 4 153 -43 181 -30
19 -53 20 -425 20 -469 0 -451 4 -472 -105 -12 -57 6 -130 37 -155 23 -18 41
-20 159 -20 74 0 134 -1 134 -3 0 -2 -18 -55 -41 -118 -22 -63 -106 -301 -185
-529 -195 -557 -274 -782 -346 -988 -37 -106 -64 -169 -69 -160 -4 7 -57 159
-119 338 -62 179 -147 426 -190 550 -234 673 -310 896 -310 903 0 4 79 7 176
7 l176 0 29 29 c30 30 35 55 29 146 -3 52 -14 71 -50 90 -25 13 -95 15 -463
15 -434 0 -434 0 -467 -22z"/>
<path d="M2924 3604 c-17 -8 -36 -26 -43 -40 -8 -17 -11 -160 -11 -470 0 -401
2 -449 17 -475 24 -40 60 -52 153 -48 71 4 83 7 107 32 l28 27 3 355 3 355
274 0 275 0 0 -945 0 -945 -267 0 c-194 0 -275 -4 -293 -13 -42 -21 -62 -72
-57 -147 4 -57 9 -68 36 -92 l31 -28 706 0 706 0 28 28 c49 50 52 165 5 220
l-23 27 -281 3 -281 3 0 944 0 945 275 0 274 0 3 -356 3 -356 33 -29 c30 -27
38 -29 117 -29 79 0 87 2 117 29 l33 29 0 466 0 466 -28 27 -27 28 -943 2
c-833 2 -946 1 -973 -13z"/>
</g>
</svg>
